<svg xmlns="http://www.w3.org/2000/svg" xmlns:xlink="http://www.w3.org/1999/xlink" width="2000" zoomAndPan="magnify" viewBox="0 0 1500 1499.999933" height="2000" preserveAspectRatio="xMidYMid meet" version="1.0"><path fill="#00aeef" d="M 1479.632812 755.339844 C 1479.632812 847 1462.078125 934.644531 1430.070312 1015.171875 C 1414.296875 1054.957031 1395.003906 1092.960938 1372.5625 1128.898438 C 1244.421875 1334.039062 1013.972656 1470.867188 750.9375 1470.867188 C 348.460938 1470.867188 22.207031 1150.507812 22.207031 755.339844 C 22.207031 360.171875 348.460938 39.851562 750.9375 39.851562 C 986.355469 39.851562 1195.6875 149.441406 1328.925781 319.515625 C 1333.5625 325.519531 1338.15625 331.5625 1342.671875 337.691406 C 1428.871094 455.183594 1479.632812 599.425781 1479.632812 755.339844 Z M 1479.632812 755.339844 " fill-opacity="1" fill-rule="nonzero"/><path fill="#ffffff" d="M 1342.671875 337.691406 C 1223.925781 436.472656 1147.703125 506.976562 1096.40625 560.011719 C 1069.410156 587.957031 1003.664062 658.296875 897.339844 718.535156 C 891.046875 722.09375 880.242188 727.933594 861.03125 737.828125 C 795.695312 771.527344 692.644531 818.601562 423.191406 925.621094 C 394.914062 936.839844 299.9375 974.265625 297.785156 1028.5 C 296.914062 1050.152344 311.074219 1068.410156 312.523438 1070.234375 C 343.160156 1108.652344 405.761719 1094.703125 405.84375 1096.855469 C 405.929688 1100.082031 261.636719 1145.996094 187.777344 1069.074219 C 182.351562 1063.484375 144.09375 1023.617188 149.851562 969.464844 C 152.957031 940.277344 167.570312 919.453125 175.808594 909.433594 C 174.734375 891.425781 174.734375 864.925781 181.234375 834.207031 C 188.398438 800.550781 214.109375 713.691406 338.566406 628.28125 C 518.792969 504.617188 742.039062 496.75 980.890625 438.542969 C 1067.628906 417.386719 1187.574219 382.070312 1328.925781 319.515625 C 1333.5625 325.519531 1338.15625 331.5625 1342.671875 337.691406 Z M 1342.671875 337.691406 " fill-opacity="1" fill-rule="nonzero"/><path stroke-linecap="butt" transform="matrix(4.140296, 0, 0, 4.140068, -674.399549, -511.76928)" fill-opacity="1" fill="#00aeef" fill-rule="nonzero" stroke-linejoin="miter" d="M 259.08027 293.530005 C 259.359538 296.470023 259.200091 300.160143 257.699972 304.059724 C 252.290109 318.0701 234.439635 321.880047 232.619679 322.249908 C 235.709547 310.950274 240.82033 302.7303 245.249927 299.110001 C 248.850213 296.169983 252.629758 294.839615 252.629758 294.839615 C 255.190339 293.930059 257.489578 293.630019 259.08027 293.530005 Z M 259.08027 293.530005 " stroke="#00aeef" stroke-width="1" stroke-opacity="1" stroke-miterlimit="10"/><path fill="#ffffff" d="M 1430.070312 1015.171875 C 1414.296875 1054.957031 1395.003906 1092.960938 1372.5625 1128.898438 C 1367.925781 1129.0625 1363.910156 1129.0625 1360.554688 1128.980469 C 1308.304688 1127.988281 1236.96875 1110.351562 1183.144531 1095.445312 C 1043.242188 1056.777344 963.875 1022.953125 905.207031 1003.121094 C 816.933594 973.273438 685.851562 944.417969 508.152344 957.5 C 541.855469 940.980469 587.398438 920.984375 642.835938 903.265625 C 689.539062 888.320312 743.570312 871.054688 816.148438 865.09375 C 923.257812 856.273438 1007.015625 877.679688 1052.0625 888.980469 C 1193.207031 924.335938 1211.339844 965.28125 1321.679688 995.917969 C 1350.949219 1004.035156 1387.09375 1011.609375 1430.070312 1015.171875 Z M 1430.070312 1015.171875 " fill-opacity="1" fill-rule="nonzero"/></svg>